<svg xmlns="http://www.w3.org/2000/svg" viewBox="0 0 1536 1024" role="img" width="1536" height="1024">
  <title>Camp Casey Anti-War Protest - Retro Pixel Art Banner</title>
  <defs>
    <radialGradient id="crt" cx="50%" cy="50%" r="70%">
      <stop offset="0%" stop-color="#001a00" stop-opacity="0" />
      <stop offset="100%" stop-color="#000000" stop-opacity="0.5" />
    </radialGradient>
    <pattern id="scanlines" x="0" y="0" width="4" height="4" patternUnits="userSpaceOnUse">
      <rect x="0" y="0" width="4" height="2" fill="#000000" fill-opacity="0.08" />
    </pattern>
  </defs>

  
  <rect width="1536" height="1024" fill="#1a0a2e" />
  
  <rect x="0" y="0" width="1536" height="120" fill="#0d0520" />
  <rect x="0" y="120" width="1536" height="120" fill="#1a0a2e" />
  <rect x="0" y="240" width="1536" height="120" fill="#220d3a" />
  <rect x="0" y="360" width="1536" height="80" fill="#2d1050" />
  <rect x="0" y="440" width="1536" height="80" fill="#1a1a3e" />
  
  <rect x="0" y="700" width="1536" height="324" fill="#1a2200" />
  <rect x="0" y="700" width="1536" height="16" fill="#2a3a00" />
  <rect x="0" y="716" width="1536" height="16" fill="#223000" />
  <rect x="0" y="732" width="1536" height="324" fill="#111a00" />

  
  <rect x="100" y="40" width="8" height="8" fill="#ffffff" />
  <rect x="250" y="80" width="8" height="8" fill="#ffff88" />
  <rect x="400" y="30" width="8" height="8" fill="#ffffff" />
  <rect x="600" y="60" width="8" height="8" fill="#ffffff" />
  <rect x="750" y="20" width="8" height="8" fill="#ffff88" />
  <rect x="900" y="50" width="8" height="8" fill="#ffffff" />
  <rect x="1100" y="35" width="8" height="8" fill="#ffffff" />
  <rect x="1300" y="70" width="8" height="8" fill="#ffff88" />
  <rect x="1450" y="25" width="8" height="8" fill="#ffffff" />
  <rect x="180" y="110" width="6" height="6" fill="#aaaaff" />
  <rect x="500" y="100" width="6" height="6" fill="#aaaaff" />
  <rect x="850" y="90" width="6" height="6" fill="#ffffff" />
  <rect x="1200" y="110" width="6" height="6" fill="#aaaaff" />

  
  <rect x="1350" y="60" width="80" height="80" fill="#ffee66" />
  <rect x="1358" y="52" width="64" height="8" fill="#ffee66" />
  <rect x="1342" y="68" width="8" height="48" fill="#ffee66" />
  <rect x="1430" y="68" width="8" height="48" fill="#ffee66" />
  <rect x="1358" y="140" width="64" height="8" fill="#ffee66" />
  
  <rect x="1370" y="80" width="16" height="16" fill="#ddcc44" />
  <rect x="1400" y="100" width="12" height="12" fill="#ddcc44" />

  
  
  <rect x="1150" y="540" width="240" height="160" fill="#4a3020" />
  
  <rect x="1130" y="496" width="280" height="16" fill="#6a4030" />
  <rect x="1150" y="480" width="240" height="16" fill="#6a4030" />
  <rect x="1170" y="464" width="200" height="16" fill="#6a4030" />
  <rect x="1190" y="448" width="160" height="16" fill="#6a4030" />
  <rect x="1210" y="432" width="120" height="16" fill="#6a4030" />
  <rect x="1230" y="416" width="80" height="16" fill="#6a4030" />
  
  <rect x="1170" y="560" width="48" height="48" fill="#ffcc44" />
  <rect x="1178" y="568" width="32" height="32" fill="#ffaa00" />
  <rect x="1320" y="560" width="48" height="48" fill="#ffcc44" />
  <rect x="1328" y="568" width="32" height="32" fill="#ffaa00" />
  
  <rect x="1246" y="620" width="48" height="80" fill="#2a1a10" />
  
  <rect x="1270" y="400" width="8" height="48" fill="#888888" />
  <rect x="1278" y="400" width="40" height="8" fill="#cc0000" />
  <rect x="1278" y="408" width="40" height="8" fill="#ffffff" />
  <rect x="1278" y="416" width="40" height="8" fill="#cc0000" />
  <rect x="1278" y="424" width="40" height="8" fill="#ffffff" />

  
  
  <rect x="0" y="690" width="1100" height="24" fill="#333322" />
  <rect x="0" y="706" width="1100" height="8" fill="#2a2a1a" />
  
  <rect x="80" y="670" width="12" height="40" fill="#888866" />
  <rect x="160" y="670" width="12" height="40" fill="#888866" />
  <rect x="240" y="670" width="12" height="40" fill="#888866" />
  <rect x="320" y="670" width="12" height="40" fill="#888866" />
  <rect x="400" y="670" width="12" height="40" fill="#888866" />
  <rect x="480" y="670" width="12" height="40" fill="#888866" />
  <rect x="560" y="670" width="12" height="40" fill="#888866" />
  <rect x="640" y="670" width="12" height="40" fill="#888866" />
  <rect x="720" y="670" width="12" height="40" fill="#888866" />
  <rect x="800" y="670" width="12" height="40" fill="#888866" />
  <rect x="880" y="670" width="12" height="40" fill="#888866" />
  <rect x="960" y="670" width="12" height="40" fill="#888866" />
  <rect x="1040" y="670" width="12" height="40" fill="#888866" />
  
  <rect x="80" y="678" width="980" height="8" fill="#777755" />
  <rect x="80" y="694" width="980" height="6" fill="#777755" />

  
  
  <rect x="440" y="540" width="16" height="160" fill="#886644" />
  <rect x="560" y="540" width="16" height="160" fill="#886644" />
  
  <rect x="400" y="480" width="240" height="80" fill="#ffdd00" />
  <rect x="408" y="488" width="224" height="64" fill="#ffcc00" />
  
  <rect x="400" y="480" width="240" height="8" fill="#cc9900" />
  <rect x="400" y="544" width="240" height="8" fill="#cc9900" />
  <rect x="400" y="480" width="8" height="72" fill="#cc9900" />
  <rect x="632" y="480" width="8" height="72" fill="#cc9900" />

  
  
  <rect x="416" y="500" width="8" height="32" fill="#880000" />
  <rect x="424" y="500" width="16" height="8" fill="#880000" />
  <rect x="424" y="524" width="16" height="8" fill="#880000" />
  
  <rect x="448" y="500" width="8" height="32" fill="#880000" />
  <rect x="448" y="500" width="24" height="8" fill="#880000" />
  <rect x="464" y="500" width="8" height="32" fill="#880000" />
  <rect x="448" y="516" width="24" height="8" fill="#880000" />
  
  <rect x="480" y="500" width="8" height="32" fill="#880000" />
  <rect x="488" y="508" width="8" height="8" fill="#880000" />
  <rect x="496" y="500" width="8" height="32" fill="#880000" />
  
  <rect x="512" y="500" width="8" height="32" fill="#880000" />
  <rect x="512" y="500" width="24" height="8" fill="#880000" />
  <rect x="528" y="500" width="8" height="16" fill="#880000" />
  <rect x="512" y="516" width="24" height="8" fill="#880000" />

  
  
  <rect x="700" y="530" width="48" height="48" fill="#f0c080" />
  
  <rect x="700" y="530" width="48" height="16" fill="#663300" />
  <rect x="700" y="530" width="8" height="32" fill="#663300" />
  
  <rect x="712" y="554" width="8" height="8" fill="#220000" />
  <rect x="728" y="554" width="8" height="8" fill="#220000" />
  
  <rect x="692" y="578" width="64" height="80" fill="#cc4444" />
  
  <rect x="660" y="578" width="32" height="16" fill="#cc4444" />
  <rect x="756" y="578" width="32" height="16" fill="#cc4444" />
  
  <rect x="652" y="578" width="16" height="16" fill="#f0c080" />
  
  <rect x="700" y="658" width="24" height="48" fill="#334488" />
  <rect x="728" y="658" width="24" height="48" fill="#334488" />
  
  <rect x="696" y="698" width="32" height="16" fill="#222222" />
  <rect x="724" y="698" width="32" height="16" fill="#222222" />

  
  
  <rect x="656" y="480" width="12" height="200" fill="#886644" />
  
  <rect x="616" y="448" width="120" height="64" fill="#ffffff" />
  <rect x="624" y="456" width="104" height="48" fill="#eeeeff" />
  
  
  <rect x="632" y="464" width="8" height="24" fill="#cc0000" />
  <rect x="632" y="464" width="24" height="8" fill="#cc0000" />
  <rect x="648" y="464" width="8" height="24" fill="#cc0000" />
  
  <rect x="664" y="464" width="24" height="8" fill="#cc0000" />
  <rect x="664" y="480" width="24" height="8" fill="#cc0000" />
  <rect x="664" y="464" width="8" height="24" fill="#cc0000" />
  <rect x="680" y="464" width="8" height="24" fill="#cc0000" />
  
  <rect x="700" y="464" width="24" height="24" fill="#cc0000" rx="12" />
  <rect x="710" y="464" width="4" height="24" fill="#eeeeff" />
  <rect x="700" y="474" width="24" height="4" fill="#eeeeff" />
  <rect x="700" y="474" width="12" height="12" fill="#eeeeff" opacity="0.5" />

  
  
  <rect x="820" y="550" width="40" height="40" fill="#f0c080" />
  
  <rect x="820" y="550" width="40" height="12" fill="#222222" />
  
  <rect x="830" y="568" width="6" height="6" fill="#220000" />
  <rect x="844" y="568" width="6" height="6" fill="#220000" />
  
  <rect x="812" y="590" width="56" height="72" fill="#224488" />
  
  <rect x="820" y="662" width="20" height="44" fill="#222244" />
  <rect x="844" y="662" width="20" height="44" fill="#222244" />

  
  
  <rect x="300" y="660" width="16" height="40" fill="#ffeecc" />
  <rect x="306" y="648" width="4" height="12" fill="#ffaa00" />
  <rect x="304" y="644" width="8" height="8" fill="#ffdd44" />
  
  <rect x="340" y="660" width="16" height="40" fill="#ffeecc" />
  <rect x="346" y="648" width="4" height="12" fill="#ffaa00" />
  <rect x="344" y="644" width="8" height="8" fill="#ffdd44" />
  
  <rect x="380" y="660" width="16" height="40" fill="#ffeecc" />
  <rect x="386" y="648" width="4" height="12" fill="#ffaa00" />
  <rect x="384" y="644" width="8" height="8" fill="#ffdd44" />

  
  <rect x="200" y="620" width="12" height="48" fill="#cccccc" />
  <rect x="188" y="632" width="36" height="12" fill="#cccccc" />
  <rect x="240" y="624" width="12" height="48" fill="#cccccc" />
  <rect x="228" y="636" width="36" height="12" fill="#cccccc" />

  
  <rect x="1050" y="580" width="16" height="120" fill="#224400" />
  <rect x="1034" y="612" width="48" height="16" fill="#224400" />
  <rect x="1034" y="596" width="16" height="32" fill="#224400" />
  <rect x="1066" y="596" width="16" height="32" fill="#224400" />

  <rect x="140" y="600" width="16" height="100" fill="#224400" />
  <rect x="124" y="630" width="48" height="16" fill="#224400" />
  <rect x="124" y="614" width="16" height="32" fill="#224400" />
  <rect x="156" y="618" width="16" height="28" fill="#224400" />

  
  <rect x="500" y="740" width="8" height="8" fill="#ffdd00" />
  <rect x="492" y="748" width="24" height="8" fill="#ffdd00" />
  <rect x="540" y="740" width="8" height="8" fill="#ffdd00" />
  <rect x="532" y="748" width="24" height="8" fill="#ffdd00" />
  <rect x="580" y="740" width="8" height="8" fill="#ffdd00" />
  <rect x="572" y="748" width="24" height="8" fill="#ffdd00" />

  
  <rect x="0" y="820" width="1536" height="204" fill="#000000" fill-opacity="0.75" />
  <rect x="0" y="820" width="1536" height="8" fill="#ffdd00" />

  
  
  
  
  <text x="768" y="890" font-family="monospace, 'Courier New', Courier" font-size="80" font-weight="bold" fill="#ffdd00" text-anchor="middle" letter-spacing="4" style="image-rendering:pixelated">CAMP CASEY</text>
  <text x="768" y="970" font-family="monospace, 'Courier New', Courier" font-size="56" font-weight="bold" fill="#ff4444" text-anchor="middle" letter-spacing="6">ANTI-WAR PROTEST</text>

  
  <rect x="0" y="0" width="1536" height="8" fill="#ffdd00" />
  
  <rect x="0" y="8" width="16" height="8" fill="#cc0000" />
  <rect x="32" y="8" width="16" height="8" fill="#cc0000" />
  <rect x="64" y="8" width="16" height="8" fill="#cc0000" />
  <rect x="96" y="8" width="16" height="8" fill="#cc0000" />
  <rect x="128" y="8" width="16" height="8" fill="#cc0000" />
  <rect x="160" y="8" width="16" height="8" fill="#cc0000" />
  <rect x="192" y="8" width="16" height="8" fill="#cc0000" />
  <rect x="224" y="8" width="16" height="8" fill="#cc0000" />
  <rect x="16" y="8" width="16" height="8" fill="#ffffff" />
  <rect x="48" y="8" width="16" height="8" fill="#ffffff" />
  <rect x="80" y="8" width="16" height="8" fill="#ffffff" />
  <rect x="112" y="8" width="16" height="8" fill="#ffffff" />
  <rect x="144" y="8" width="16" height="8" fill="#ffffff" />
  <rect x="176" y="8" width="16" height="8" fill="#ffffff" />
  <rect x="208" y="8" width="16" height="8" fill="#ffffff" />

  
  <rect x="60" y="840" width="160" height="64" fill="#cc0000" />
  <rect x="68" y="848" width="144" height="48" fill="#aa0000" />
  <text x="140" y="884" font-family="monospace" font-size="32" font-weight="bold" fill="#ffdd00" text-anchor="middle">2005</text>

  
  <rect x="0" y="0" width="1536" height="1024" fill="url(#scanlines)" />
  
  <rect x="0" y="0" width="1536" height="1024" fill="url(#crt)" />
</svg>