<svg xmlns="http://www.w3.org/2000/svg" viewBox="0 0 1536 1024" role="img" width="1536" height="1024">
  <title>Motorola RAZR V3 Launch in North America – Retro Pixel Art Banner</title>

  <defs>
    <radialGradient id="bgGlow" cx="50%" cy="50%" r="60%">
      <stop offset="0%" stop-color="#1a0a2e" />
      <stop offset="100%" stop-color="#050510" />
    </radialGradient>
    <radialGradient id="screenGlow" cx="50%" cy="50%" r="50%">
      <stop offset="0%" stop-color="#00ffcc" stop-opacity="0.3" />
      <stop offset="100%" stop-color="#00ffcc" stop-opacity="0" />
    </radialGradient>
    <filter id="crt">
      <feGaussianBlur stdDeviation="1.5" result="blur" />
      <feMerge><feMergeNode in="blur" /><feMergeNode in="SourceGraphic" /></feMerge>
    </filter>
    <radialGradient id="razrBodyGrad" cx="50%" cy="30%" r="70%">
      <stop offset="0%" stop-color="#c8d8e8" />
      <stop offset="60%" stop-color="#8899aa" />
      <stop offset="100%" stop-color="#445566" />
    </radialGradient>
  </defs>

  
  <rect width="1536" height="1024" fill="url(#bgGlow)" />

  
  <rect width="1536" height="1024" fill="none" stroke="#ffffff" stroke-width="0" opacity="0.03" />
  
  <rect x="0" y="0" width="1536" height="2" fill="#ffffff" opacity="0.04" />
  <rect x="0" y="4" width="1536" height="2" fill="#ffffff" opacity="0.04" />
  <rect x="0" y="8" width="1536" height="2" fill="#ffffff" opacity="0.04" />
  <rect x="0" y="12" width="1536" height="2" fill="#ffffff" opacity="0.04" />
  
  <g opacity="0.035" fill="#aaaaff">
    <rect x="0" y="16" width="1536" height="2" />
    <rect x="0" y="24" width="1536" height="2" />
    <rect x="0" y="32" width="1536" height="2" />
    <rect x="0" y="40" width="1536" height="2" />
    <rect x="0" y="48" width="1536" height="2" />
    <rect x="0" y="56" width="1536" height="2" />
    <rect x="0" y="64" width="1536" height="2" />
    <rect x="0" y="72" width="1536" height="2" />
    <rect x="0" y="80" width="1536" height="2" />
    <rect x="0" y="88" width="1536" height="2" />
    <rect x="0" y="96" width="1536" height="2" />
    <rect x="0" y="104" width="1536" height="2" />
    <rect x="0" y="112" width="1536" height="2" />
    <rect x="0" y="120" width="1536" height="2" />
    <rect x="0" y="128" width="1536" height="2" />
    <rect x="0" y="136" width="1536" height="2" />
    <rect x="0" y="144" width="1536" height="2" />
    <rect x="0" y="152" width="1536" height="2" />
    <rect x="0" y="160" width="1536" height="2" />
    <rect x="0" y="168" width="1536" height="2" />
    <rect x="0" y="176" width="1536" height="2" />
    <rect x="0" y="184" width="1536" height="2" />
    <rect x="0" y="192" width="1536" height="2" />
    <rect x="0" y="200" width="1536" height="2" />
    <rect x="0" y="208" width="1536" height="2" />
    <rect x="0" y="216" width="1536" height="2" />
    <rect x="0" y="224" width="1536" height="2" />
    <rect x="0" y="232" width="1536" height="2" />
    <rect x="0" y="240" width="1536" height="2" />
    <rect x="0" y="248" width="1536" height="2" />
    <rect x="0" y="256" width="1536" height="2" />
    <rect x="0" y="264" width="1536" height="2" />
    <rect x="0" y="272" width="1536" height="2" />
    <rect x="0" y="280" width="1536" height="2" />
    <rect x="0" y="288" width="1536" height="2" />
    <rect x="0" y="296" width="1536" height="2" />
    <rect x="0" y="304" width="1536" height="2" />
    <rect x="0" y="312" width="1536" height="2" />
    <rect x="0" y="320" width="1536" height="2" />
    <rect x="0" y="328" width="1536" height="2" />
    <rect x="0" y="336" width="1536" height="2" />
    <rect x="0" y="344" width="1536" height="2" />
    <rect x="0" y="352" width="1536" height="2" />
    <rect x="0" y="360" width="1536" height="2" />
    <rect x="0" y="368" width="1536" height="2" />
    <rect x="0" y="376" width="1536" height="2" />
    <rect x="0" y="384" width="1536" height="2" />
    <rect x="0" y="392" width="1536" height="2" />
    <rect x="0" y="400" width="1536" height="2" />
    <rect x="0" y="408" width="1536" height="2" />
    <rect x="0" y="416" width="1536" height="2" />
    <rect x="0" y="424" width="1536" height="2" />
    <rect x="0" y="432" width="1536" height="2" />
    <rect x="0" y="440" width="1536" height="2" />
    <rect x="0" y="448" width="1536" height="2" />
    <rect x="0" y="456" width="1536" height="2" />
    <rect x="0" y="464" width="1536" height="2" />
    <rect x="0" y="472" width="1536" height="2" />
    <rect x="0" y="480" width="1536" height="2" />
    <rect x="0" y="488" width="1536" height="2" />
    <rect x="0" y="496" width="1536" height="2" />
    <rect x="0" y="504" width="1536" height="2" />
    <rect x="0" y="512" width="1536" height="2" />
    <rect x="0" y="520" width="1536" height="2" />
    <rect x="0" y="528" width="1536" height="2" />
    <rect x="0" y="536" width="1536" height="2" />
    <rect x="0" y="544" width="1536" height="2" />
    <rect x="0" y="552" width="1536" height="2" />
    <rect x="0" y="560" width="1536" height="2" />
    <rect x="0" y="568" width="1536" height="2" />
    <rect x="0" y="576" width="1536" height="2" />
    <rect x="0" y="584" width="1536" height="2" />
    <rect x="0" y="592" width="1536" height="2" />
    <rect x="0" y="600" width="1536" height="2" />
    <rect x="0" y="608" width="1536" height="2" />
    <rect x="0" y="616" width="1536" height="2" />
    <rect x="0" y="624" width="1536" height="2" />
    <rect x="0" y="632" width="1536" height="2" />
    <rect x="0" y="640" width="1536" height="2" />
    <rect x="0" y="648" width="1536" height="2" />
    <rect x="0" y="656" width="1536" height="2" />
    <rect x="0" y="664" width="1536" height="2" />
    <rect x="0" y="672" width="1536" height="2" />
    <rect x="0" y="680" width="1536" height="2" />
    <rect x="0" y="688" width="1536" height="2" />
    <rect x="0" y="696" width="1536" height="2" />
    <rect x="0" y="704" width="1536" height="2" />
    <rect x="0" y="712" width="1536" height="2" />
    <rect x="0" y="720" width="1536" height="2" />
    <rect x="0" y="728" width="1536" height="2" />
    <rect x="0" y="736" width="1536" height="2" />
    <rect x="0" y="744" width="1536" height="2" />
    <rect x="0" y="752" width="1536" height="2" />
    <rect x="0" y="760" width="1536" height="2" />
    <rect x="0" y="768" width="1536" height="2" />
    <rect x="0" y="776" width="1536" height="2" />
    <rect x="0" y="784" width="1536" height="2" />
    <rect x="0" y="792" width="1536" height="2" />
    <rect x="0" y="800" width="1536" height="2" />
    <rect x="0" y="808" width="1536" height="2" />
    <rect x="0" y="816" width="1536" height="2" />
    <rect x="0" y="824" width="1536" height="2" />
    <rect x="0" y="832" width="1536" height="2" />
    <rect x="0" y="840" width="1536" height="2" />
    <rect x="0" y="848" width="1536" height="2" />
    <rect x="0" y="856" width="1536" height="2" />
    <rect x="0" y="864" width="1536" height="2" />
    <rect x="0" y="872" width="1536" height="2" />
    <rect x="0" y="880" width="1536" height="2" />
    <rect x="0" y="888" width="1536" height="2" />
    <rect x="0" y="896" width="1536" height="2" />
    <rect x="0" y="904" width="1536" height="2" />
    <rect x="0" y="912" width="1536" height="2" />
    <rect x="0" y="920" width="1536" height="2" />
    <rect x="0" y="928" width="1536" height="2" />
    <rect x="0" y="936" width="1536" height="2" />
    <rect x="0" y="944" width="1536" height="2" />
    <rect x="0" y="952" width="1536" height="2" />
    <rect x="0" y="960" width="1536" height="2" />
    <rect x="0" y="968" width="1536" height="2" />
    <rect x="0" y="976" width="1536" height="2" />
    <rect x="0" y="984" width="1536" height="2" />
    <rect x="0" y="992" width="1536" height="2" />
    <rect x="0" y="1000" width="1536" height="2" />
    <rect x="0" y="1008" width="1536" height="2" />
    <rect x="0" y="1016" width="1536" height="2" />
  </g>

  
  
  <g fill="#ff00ff" opacity="0.6">
    <rect x="80" y="80" width="8" height="8" />
    <rect x="96" y="80" width="8" height="8" />
    <rect x="88" y="72" width="8" height="8" />
    <rect x="88" y="88" width="8" height="8" />
  </g>
  <g fill="#00ffff" opacity="0.5">
    <rect x="1400" y="120" width="8" height="8" />
    <rect x="1416" y="120" width="8" height="8" />
    <rect x="1408" y="112" width="8" height="8" />
    <rect x="1408" y="128" width="8" height="8" />
  </g>
  <g fill="#ffff00" opacity="0.5">
    <rect x="200" y="880" width="8" height="8" />
    <rect x="216" y="880" width="8" height="8" />
    <rect x="208" y="872" width="8" height="8" />
    <rect x="208" y="888" width="8" height="8" />
  </g>
  <g fill="#ff8800" opacity="0.5">
    <rect x="1300" y="900" width="8" height="8" />
    <rect x="1316" y="900" width="8" height="8" />
    <rect x="1308" y="892" width="8" height="8" />
    <rect x="1308" y="908" width="8" height="8" />
  </g>

  
  <g fill="none" stroke="#00ffcc" stroke-width="4" opacity="0.5">
    
    <polyline points="40,40 40,100 100,100" />
    <polyline points="40,40 100,40" />
    
    <polyline points="1496,40 1496,100 1436,100" />
    <polyline points="1496,40 1436,40" />
    
    <polyline points="40,984 40,924 100,924" />
    <polyline points="40,984 100,984" />
    
    <polyline points="1496,984 1496,924 1436,924" />
    <polyline points="1496,984 1436,984" />
  </g>

  
  <g fill="#00ff88" opacity="0.7">
    <rect x="100" y="460" width="16" height="8" />
    <rect x="100" y="444" width="16" height="8" />
    <rect x="100" y="428" width="16" height="8" />
    <rect x="100" y="412" width="16" height="8" />
    <rect x="124" y="444" width="16" height="24" />
    <rect x="148" y="428" width="16" height="40" />
    <rect x="172" y="412" width="16" height="56" />
    <rect x="196" y="396" width="16" height="72" />
  </g>

  
  <g fill="#ff00ff" opacity="0.6">
    <rect x="1324" y="460" width="16" height="8" />
    <rect x="1348" y="444" width="16" height="24" />
    <rect x="1372" y="428" width="16" height="40" />
    <rect x="1396" y="412" width="16" height="56" />
    <rect x="1420" y="396" width="16" height="72" />
  </g>

  
  
  
  
  

  
  <ellipse cx="768" cy="520" rx="240" ry="320" fill="url(#screenGlow)" />

  
  
  
  
  
  <rect x="644" y="124" width="256" height="304" rx="0" fill="#223344" opacity="0.6" />
  
  
  
  <rect x="636" y="116" width="256" height="300" fill="#778899" />
  
  <rect x="636" y="116" width="256" height="16" fill="#aabbcc" />
  
  <rect x="636" y="116" width="16" height="300" fill="#99aabb" />
  
  <rect x="876" y="116" width="16" height="300" fill="#556677" />
  
  <rect x="636" y="400" width="256" height="16" fill="#556677" />

  
  <rect x="700" y="132" width="128" height="72" fill="#001122" />
  <rect x="708" y="140" width="112" height="56" fill="#003311" />
  
  
  <g fill="#00ff44">
    
    <rect x="716" y="148" width="4" height="4" />
    <rect x="716" y="152" width="4" height="4" />
    <rect x="716" y="156" width="4" height="4" />
    <rect x="716" y="160" width="4" height="4" />
    <rect x="716" y="164" width="4" height="4" />
    
    <rect x="724" y="148" width="8" height="4" />
    <rect x="732" y="152" width="4" height="4" />
    <rect x="724" y="156" width="8" height="4" />
    <rect x="720" y="160" width="4" height="4" />
    <rect x="720" y="164" width="12" height="4" />
    
    <rect x="740" y="152" width="4" height="4" />
    <rect x="740" y="160" width="4" height="4" />
    
    <rect x="748" y="148" width="8" height="4" />
    <rect x="748" y="152" width="4" height="4" />
    <rect x="756" y="152" width="4" height="4" />
    <rect x="748" y="156" width="4" height="4" />
    <rect x="756" y="156" width="4" height="4" />
    <rect x="748" y="160" width="4" height="4" />
    <rect x="756" y="160" width="4" height="4" />
    <rect x="748" y="164" width="8" height="4" />
    
    <rect x="764" y="148" width="8" height="4" />
    <rect x="764" y="152" width="4" height="4" />
    <rect x="764" y="156" width="8" height="4" />
    <rect x="772" y="160" width="4" height="4" />
    <rect x="764" y="164" width="8" height="4" />
  </g>
  
  <g fill="#00ff44" opacity="0.8">
    <rect x="712" y="176" width="4" height="8" />
    <rect x="718" y="172" width="4" height="12" />
    <rect x="724" y="168" width="4" height="16" />
    <rect x="730" y="164" width="4" height="20" />
  </g>

  
  <rect x="636" y="416" width="256" height="24" fill="#445566" />
  <rect x="636" y="416" width="256" height="8" fill="#667788" />
  
  <rect x="680" y="416" width="16" height="24" fill="#334455" />
  <rect x="832" y="416" width="16" height="24" fill="#334455" />
  <rect x="696" y="420" width="8" height="16" fill="#778899" />
  <rect x="824" y="420" width="8" height="16" fill="#778899" />

  
  
  <rect x="652" y="216" width="224" height="196" fill="#000816" />
  
  <rect x="660" y="224" width="208" height="180" fill="#001a33" />
  
  
  <rect x="660" y="224" width="208" height="180" fill="#002244" opacity="0.7" />
  
  
  
  <rect x="664" y="228" width="200" height="172" fill="#000d1a" />
  
  
  <g fill="#00ccff">
    
    <rect x="700" y="248" width="8" height="8" />
    <rect x="700" y="256" width="8" height="8" />
    <rect x="700" y="264" width="8" height="8" />
    <rect x="700" y="272" width="8" height="8" />
    <rect x="700" y="280" width="8" height="8" />
    <rect x="708" y="256" width="8" height="8" />
    <rect x="716" y="248" width="8" height="8" />
    <rect x="716" y="256" width="8" height="8" />
    <rect x="724" y="256" width="8" height="8" />
    <rect x="732" y="248" width="8" height="8" />
    <rect x="732" y="256" width="8" height="8" />
    <rect x="732" y="264" width="8" height="8" />
    <rect x="732" y="272" width="8" height="8" />
    <rect x="732" y="280" width="8" height="8" />
  </g>
  
  
  <g fill="#ff6600">
    
    <rect x="668" y="308" width="4" height="4" />
    <rect x="668" y="312" width="4" height="4" />
    <rect x="668" y="316" width="4" height="4" />
    <rect x="668" y="320" width="4" height="4" />
    <rect x="668" y="324" width="4" height="4" />
    <rect x="672" y="308" width="4" height="4" />
    <rect x="676" y="308" width="4" height="4" />
    <rect x="676" y="312" width="4" height="4" />
    <rect x="672" y="316" width="4" height="4" />
    <rect x="676" y="320" width="4" height="4" />
    <rect x="676" y="324" width="4" height="4" />
    
    <rect x="684" y="316" width="4" height="4" />
    <rect x="688" y="308" width="4" height="4" />
    <rect x="688" y="312" width="4" height="4" />
    <rect x="688" y="316" width="4" height="4" />
    <rect x="688" y="320" width="4" height="4" />
    <rect x="688" y="324" width="4" height="4" />
    <rect x="692" y="316" width="4" height="4" />
    <rect x="692" y="308" width="4" height="4" />
    <rect x="692" y="312" width="4" height="4" />
    <rect x="692" y="320" width="4" height="4" />
    <rect x="692" y="324" width="4" height="4" />
    
    <rect x="700" y="308" width="12" height="4" />
    <rect x="708" y="312" width="4" height="4" />
    <rect x="704" y="316" width="4" height="4" />
    <rect x="700" y="320" width="4" height="4" />
    <rect x="700" y="324" width="12" height="4" />
    
    <rect x="716" y="308" width="4" height="4" />
    <rect x="716" y="312" width="4" height="4" />
    <rect x="716" y="316" width="4" height="4" />
    <rect x="716" y="320" width="4" height="4" />
    <rect x="716" y="324" width="4" height="4" />
    <rect x="720" y="308" width="4" height="4" />
    <rect x="724" y="308" width="4" height="4" />
    <rect x="724" y="312" width="4" height="4" />
    <rect x="720" y="316" width="4" height="4" />
    <rect x="724" y="320" width="4" height="4" />
    <rect x="724" y="324" width="4" height="4" />
  </g>
  
  
  <g fill="#ffff00">
    <rect x="740" y="308" width="4" height="4" />
    <rect x="740" y="312" width="4" height="4" />
    <rect x="740" y="316" width="4" height="4" />
    <rect x="740" y="320" width="4" height="4" />
    <rect x="744" y="324" width="4" height="4" />
    <rect x="748" y="308" width="4" height="4" />
    <rect x="748" y="312" width="4" height="4" />
    <rect x="748" y="316" width="4" height="4" />
    <rect x="748" y="320" width="4" height="4" />
    
    <rect x="756" y="308" width="8" height="4" />
    <rect x="764" y="312" width="4" height="4" />
    <rect x="756" y="316" width="8" height="4" />
    <rect x="764" y="320" width="4" height="4" />
    <rect x="756" y="324" width="8" height="4" />
  </g>
  
  
  <rect x="664" y="228" width="200" height="4" fill="#00ccff" opacity="0.15" />
  <rect x="664" y="280" width="200" height="4" fill="#00ccff" opacity="0.1" />
  <rect x="664" y="340" width="200" height="4" fill="#00ccff" opacity="0.1" />
  <rect x="664" y="390" width="200" height="4" fill="#00ccff" opacity="0.1" />

  
  
  <rect x="636" y="440" width="256" height="260" fill="#667788" />
  
  <rect x="636" y="440" width="16" height="260" fill="#889aaa" />
  
  <rect x="876" y="440" width="16" height="260" fill="#445566" />
  
  <rect x="636" y="684" width="256" height="16" fill="#556677" />
  
  <rect x="636" y="440" width="256" height="16" fill="#556677" />

  
  <rect x="652" y="464" width="224" height="220" fill="#556677" />
  <rect x="660" y="472" width="208" height="204" fill="#4a5f70" />

  
  
  <rect x="740" y="476" width="48" height="48" fill="#334455" />
  <rect x="748" y="484" width="32" height="32" fill="#2a3a4a" />
  
  <rect x="756" y="492" width="16" height="16" fill="#00ccff" />
  
  <rect x="760" y="484" width="8" height="4" />
  
  <rect x="760" y="508" width="8" height="4" fill="#334455" />
  
  <rect x="748" y="496" width="4" height="8" fill="#334455" />
  
  <rect x="776" y="496" width="4" height="8" fill="#334455" />
  
  <g fill="#00ccff">
    <rect x="760" y="484" width="8" height="4" />
    <rect x="764" y="488" width="4" height="4" />
    <rect x="760" y="508" width="8" height="4" />
    <rect x="764" y="504" width="4" height="4" />
    <rect x="748" y="496" width="4" height="8" />
    <rect x="752" y="500" width="4" height="4" />
    <rect x="780" y="496" width="4" height="8" />
    <rect x="776" y="500" width="4" height="4" />
  </g>

  
  <rect x="664" y="480" width="56" height="20" fill="#114422" />
  <rect x="668" y="484" width="48" height="12" fill="#00aa44" />
  
  <g fill="#00ff66">
    <rect x="676" y="486" width="4" height="4" />
    <rect x="680" y="486" width="4" height="4" />
    <rect x="684" y="486" width="4" height="4" />
    <rect x="688" y="486" width="4" height="4" />
    <rect x="676" y="490" width="4" height="4" />
    <rect x="688" y="490" width="4" height="4" />
    <rect x="680" y="494" width="4" height="4" />
    <rect x="684" y="494" width="4" height="4" />
  </g>

  <rect x="808" y="480" width="56" height="20" fill="#440011" />
  <rect x="812" y="484" width="48" height="12" fill="#cc0022" />
  
  <g fill="#ff4466">
    <rect x="820" y="486" width="16" height="4" />
    <rect x="820" y="490" width="16" height="4" />
    <rect x="820" y="494" width="16" height="4" />
  </g>

  
  
  <g fill="#334455">
    <rect x="664" y="508" width="56" height="36" />
    <rect x="740" y="508" width="48" height="36" />
    <rect x="808" y="508" width="56" height="36" />
  </g>
  <g fill="#445566">
    <rect x="668" y="512" width="48" height="28" />
    <rect x="744" y="512" width="40" height="28" />
    <rect x="812" y="512" width="48" height="28" />
  </g>
  
  <g fill="#aaccee">
    <rect x="688" y="516" width="4" height="4" />
    <rect x="688" y="520" width="4" height="4" />
    <rect x="688" y="524" width="4" height="4" />
    <rect x="688" y="528" width="4" height="4" />
    <rect x="684" y="516" width="4" height="4" />
  </g>
  
  <g fill="#aaccee">
    <rect x="756" y="516" width="8" height="4" />
    <rect x="764" y="520" width="4" height="4" />
    <rect x="756" y="524" width="8" height="4" />
    <rect x="752" y="528" width="4" height="4" />
    <rect x="752" y="532" width="12" height="4" />
  </g>
  
  <g fill="#aaccee">
    <rect x="820" y="516" width="8" height="4" />
    <rect x="828" y="520" width="4" height="4" />
    <rect x="820" y="524" width="8" height="4" />
    <rect x="828" y="528" width="4" height="4" />
    <rect x="820" y="532" width="8" height="4" />
  </g>

  
  <g fill="#334455">
    <rect x="664" y="552" width="56" height="36" />
    <rect x="740" y="552" width="48" height="36" />
    <rect x="808" y="552" width="56" height="36" />
  </g>
  <g fill="#445566">
    <rect x="668" y="556" width="48" height="28" />
    <rect x="744" y="556" width="40" height="28" />
    <rect x="812" y="556" width="48" height="28" />
  </g>
  
  <g fill="#aaccee">
    <rect x="684" y="560" width="4" height="8" />
    <rect x="688" y="564" width="4" height="4" />
    <rect x="692" y="560" width="4" height="16" />
    <rect x="692" y="572" width="4" height="4" />
  </g>
  
  <g fill="#aaccee">
    <rect x="752" y="560" width="8" height="4" />
    <rect x="752" y="564" width="4" height="4" />
    <rect x="752" y="568" width="8" height="4" />
    <rect x="760" y="572" width="4" height="4" />
    <rect x="752" y="576" width="8" height="4" />
  </g>
  
  <g fill="#aaccee">
    <rect x="820" y="560" width="8" height="4" />
    <rect x="820" y="564" width="4" height="4" />
    <rect x="820" y="568" width="8" height="4" />
    <rect x="820" y="572" width="4" height="4" />
    <rect x="828" y="572" width="4" height="4" />
    <rect x="820" y="576" width="8" height="4" />
  </g>

  
  <g fill="#334455">
    <rect x="664" y="596" width="56" height="36" />
    <rect x="740" y="596" width="48" height="36" />
    <rect x="808" y="596" width="56" height="36" />
  </g>
  <g fill="#445566">
    <rect x="668" y="600" width="48" height="28" />
    <rect x="744" y="600" width="40" height="28" />
    <rect x="812" y="600" width="48" height="28" />
  </g>
  
  <g fill="#aaccee">
    <rect x="684" y="604" width="8" height="4" />
    <rect x="692" y="608" width="4" height="4" />
    <rect x="692" y="612" width="4" height="4" />
    <rect x="692" y="616" width="4" height="4" />
    <rect x="692" y="620" width="4" height="4" />
  </g>
  
  <g fill="#aaccee">
    <rect x="752" y="604" width="8" height="4" />
    <rect x="752" y="608" width="4" height="4" />
    <rect x="760" y="608" width="4" height="4" />
    <rect x="752" y="612" width="8" height="4" />
    <rect x="752" y="616" width="4" height="4" />
    <rect x="760" y="616" width="4" height="4" />
    <rect x="752" y="620" width="8" height="4" />
  </g>
  
  <g fill="#aaccee">
    <rect x="820" y="604" width="8" height="4" />
    <rect x="820" y="608" width="4" height="4" />
    <rect x="828" y="608" width="4" height="4" />
    <rect x="820" y="612" width="8" height="4" />
    <rect x="828" y="616" width="4" height="4" />
    <rect x="828" y="620" width="4" height="4" />
    <rect x="820" y="624" width="8" height="4" />
  </g>

  
  <g fill="#334455">
    <rect x="664" y="640" width="56" height="36" />
    <rect x="740" y="640" width="48" height="36" />
    <rect x="808" y="640" width="56" height="36" />
  </g>
  <g fill="#445566">
    <rect x="668" y="644" width="48" height="28" />
    <rect x="744" y="644" width="40" height="28" />
    <rect x="812" y="644" width="48" height="28" />
  </g>
  
  <g fill="#aaccee">
    <rect x="686" y="652" width="4" height="4" />
    <rect x="682" y="656" width="12" height="4" />
    <rect x="686" y="660" width="4" height="4" />
    <rect x="684" y="648" width="4" height="4" />
    <rect x="688" y="648" width="4" height="4" />
  </g>
  
  <g fill="#aaccee">
    <rect x="752" y="648" width="8" height="4" />
    <rect x="752" y="652" width="4" height="4" />
    <rect x="760" y="652" width="4" height="4" />
    <rect x="752" y="656" width="4" height="4" />
    <rect x="760" y="656" width="4" height="4" />
    <rect x="752" y="660" width="4" height="4" />
    <rect x="760" y="660" width="4" height="4" />
    <rect x="752" y="664" width="8" height="4" />
  </g>
  
  <g fill="#aaccee">
    <rect x="820" y="648" width="4" height="20" />
    <rect x="828" y="648" width="4" height="20" />
    <rect x="816" y="656" width="20" height="4" />
    <rect x="816" y="660" width="20" height="4" />
  </g>

  
  <rect x="740" y="128" width="24" height="24" fill="#223344" />
  <rect x="744" y="132" width="16" height="16" fill="#112233" />
  <rect x="748" y="136" width="8" height="8" fill="#334455" />
  <rect x="750" y="138" width="4" height="4" fill="#667788" />
  
  <rect x="750" y="138" width="2" height="2" fill="#ffffff" opacity="0.8" />

  
  
  <rect x="60" y="200" width="480" height="600" fill="#0a0a1a" opacity="0.85" />
  <rect x="60" y="200" width="480" height="8" fill="#ff00ff" opacity="0.8" />
  <rect x="60" y="200" width="4" height="600" fill="#ff00ff" opacity="0.8" />
  <rect x="536" y="200" width="4" height="600" fill="#ff00ff" opacity="0.4" />
  <rect x="60" y="792" width="480" height="8" fill="#ff00ff" opacity="0.4" />

  
  <text x="80" y="248" font-family="monospace" font-size="20" fill="#ff00ff" font-weight="bold" letter-spacing="2">[ DEVICE SPECS ]</text>

  
  <rect x="80" y="260" width="440" height="4" fill="#ff00ff" opacity="0.4" />

  
  <text x="80" y="296" font-family="monospace" font-size="18" fill="#00ffcc">▸ THICKNESS</text>
  <text x="80" y="320" font-family="monospace" font-size="24" fill="#ffff00" font-weight="bold">13.9 MM</text>
  <text x="80" y="344" font-family="monospace" font-size="14" fill="#8888aa">THINNEST CLAMSHELL 2005</text>

  <rect x="80" y="356" width="440" height="2" fill="#334455" />

  <text x="80" y="388" font-family="monospace" font-size="18" fill="#00ffcc">▸ WEIGHT</text>
  <text x="80" y="412" font-family="monospace" font-size="24" fill="#ffff00" font-weight="bold">98 GRAMS</text>
  <text x="80" y="436" font-family="monospace" font-size="14" fill="#8888aa">LASER-CUT ALUMINUM BODY</text>

  <rect x="80" y="448" width="440" height="2" fill="#334455" />

  <text x="80" y="480" font-family="monospace" font-size="18" fill="#00ffcc">▸ DISPLAY</text>
  <text x="80" y="504" font-family="monospace" font-size="24" fill="#ffff00" font-weight="bold">2.2" QVGA</text>
  <text x="80" y="528" font-family="monospace" font-size="14" fill="#8888aa">176 × 220 PIXELS</text>

  <rect x="80" y="540" width="440" height="2" fill="#334455" />

  <text x="80" y="572" font-family="monospace" font-size="18" fill="#00ffcc">▸ CAMERA</text>
  <text x="80" y="596" font-family="monospace" font-size="24" fill="#ffff00" font-weight="bold">1.3 MEGAPIXEL</text>
  <text x="80" y="620" font-family="monospace" font-size="14" fill="#8888aa">WITH VIDEO RECORDING</text>

  <rect x="80" y="632" width="440" height="2" fill="#334455" />

  <text x="80" y="664" font-family="monospace" font-size="18" fill="#00ffcc">▸ LAUNCH PRICE</text>
  <text x="80" y="692" font-family="monospace" font-size="22" fill="#ffff00" font-weight="bold">$399 – $599</text>
  <text x="80" y="716" font-family="monospace" font-size="14" fill="#8888aa">NO CARRIER SUBSIDY</text>
  <text x="80" y="736" font-family="monospace" font-size="16" fill="#aaaacc">$199 W/ 2-YR CONTRACT</text>

  <rect x="80" y="748" width="440" height="2" fill="#334455" />

  <text x="80" y="780" font-family="monospace" font-size="18" fill="#00ffcc">▸ BLUETOOTH</text>
  <text x="80" y="804" font-family="monospace" font-size="24" fill="#ffff00" font-weight="bold">1.1</text>
  <text x="80" y="828" font-family="monospace" font-size="14" fill="#8888aa">iTAP PREDICTIVE TEXT</text>

  
  <rect x="996" y="200" width="480" height="600" fill="#0a0a1a" opacity="0.85" />
  <rect x="996" y="200" width="480" height="8" fill="#00ffcc" opacity="0.8" />
  <rect x="996" y="200" width="4" height="600" fill="#00ffcc" opacity="0.4" />
  <rect x="1472" y="200" width="4" height="600" fill="#00ffcc" opacity="0.8" />
  <rect x="996" y="792" width="480" height="8" fill="#00ffcc" opacity="0.4" />

  
  <g fill="#00ccff" transform="translate(1016, 220)">
    <rect x="0" y="0" width="12" height="64" />
    <rect x="12" y="0" width="12" height="12" />
    <rect x="24" y="12" width="12" height="12" />
    <rect x="36" y="0" width="12" height="12" />
    <rect x="48" y="12" width="12" height="12" />
    <rect x="60" y="0" width="12" height="12" />
    <rect x="60" y="12" width="12" height="12" />
    <rect x="60" y="24" width="12" height="12" />
    <rect x="60" y="36" width="12" height="12" />
    <rect x="60" y="48" width="12" height="12" />
    <rect x="60" y="60" width="12" height="4" />
  </g>
  <text x="1110" y="260" font-family="monospace" font-size="16" fill="#00ccff" letter-spacing="6">MOTOROLA</text>

  
  <rect x="1016" y="304" width="440" height="4" fill="#00ffcc" opacity="0.4" />

  
  <text x="1016" y="380" font-family="monospace" font-size="72" fill="#ff6600" font-weight="bold" letter-spacing="4">RAZR</text>
  <text x="1016" y="436" font-family="monospace" font-size="48" fill="#ffff00" font-weight="bold" letter-spacing="8">V3</text>

  
  <rect x="1016" y="444" width="280" height="4" fill="#ff6600" opacity="0.6" />
  <rect x="1016" y="452" width="200" height="4" fill="#ff6600" opacity="0.3" />
  <rect x="1016" y="460" width="120" height="4" fill="#ff6600" opacity="0.1" />

  
  <text x="1016" y="508" font-family="monospace" font-size="14" fill="#ff00ff" letter-spacing="2">CARRIERS:</text>
  <text x="1016" y="532" font-family="monospace" font-size="16" fill="#ffffff">CINGULAR  VERIZON</text>
  <text x="1016" y="556" font-family="monospace" font-size="16" fill="#ffffff">T-MOBILE  SPRINT</text>

  <rect x="1016" y="572" width="440" height="2" fill="#334455" />

  
  <text x="1016" y="608" font-family="monospace" font-size="14" fill="#ff00ff" letter-spacing="2">LAUNCH:</text>
  <text x="1016" y="636" font-family="monospace" font-size="20" fill="#ffffff" font-weight="bold">SEPT 2005</text>
  <text x="1016" y="660" font-family="monospace" font-size="13" fill="#8888aa">NORTH AMERICAN MARKET</text>

  <rect x="1016" y="672" width="440" height="2" fill="#334455" />

  
  <rect x="1016" y="692" width="220" height="36" fill="#ff00ff" opacity="0.2" />
  <rect x="1016" y="692" width="4" height="36" fill="#ff00ff" />
  <text x="1028" y="716" font-family="monospace" font-size="16" fill="#ff00ff">"HALO" PRODUCT</text>

  <rect x="1260" y="692" width="180" height="36" fill="#00ffcc" opacity="0.1" />
  <rect x="1260" y="692" width="4" height="36" fill="#00ffcc" />
  <text x="1272" y="716" font-family="monospace" font-size="16" fill="#00ffcc">ALUMINUM BODY</text>

  <rect x="1016" y="736" width="440" height="2" fill="#334455" />

  
  <text x="1016" y="772" font-family="monospace" font-size="12" fill="#8888aa">DESIGN DIR: JIM WICKS</text>
  <text x="1016" y="792" font-family="monospace" font-size="12" fill="#8888aa">CONCEIVED: 2003</text>

  
  
  <rect x="0" y="0" width="1536" height="108" fill="#050510" opacity="0.9" />
  <rect x="0" y="100" width="1536" height="8" fill="#00ffcc" opacity="0.7" />

  
  <g fill="#ff00ff" opacity="0.6">
    <rect x="40" y="16" width="8" height="8" />
    <rect x="48" y="24" width="8" height="8" />
    <rect x="40" y="32" width="8" height="8" />
    <rect x="48" y="40" width="8" height="8" />
    <rect x="40" y="48" width="8" height="8" />
  </g>
  <g fill="#00ffcc" opacity="0.6">
    <rect x="1480" y="16" width="8" height="8" />
    <rect x="1472" y="24" width="8" height="8" />
    <rect x="1480" y="32" width="8" height="8" />
    <rect x="1472" y="40" width="8" height="8" />
    <rect x="1480" y="48" width="8" height="8" />
  </g>

  
  <text x="768" y="52" font-family="monospace" font-size="36" fill="#ffffff" font-weight="bold" text-anchor="middle" letter-spacing="3">MOTOROLA RAZR V3</text>
  <text x="768" y="90" font-family="monospace" font-size="22" fill="#00ffcc" text-anchor="middle" letter-spacing="4">LAUNCH IN NORTH AMERICA</text>

  
  <rect x="0" y="916" width="1536" height="108" fill="#050510" opacity="0.9" />
  <rect x="0" y="916" width="1536" height="8" fill="#ff00ff" opacity="0.5" />

  
  <g fill="#ff6600" opacity="0.5">
    <rect x="60" y="940" width="8" height="8" />
    <rect x="76" y="940" width="8" height="8" />
    <rect x="92" y="940" width="8" height="8" />
    <rect x="108" y="940" width="8" height="8" />
    <rect x="124" y="940" width="8" height="8" />
    <rect x="140" y="940" width="8" height="8" />
    <rect x="156" y="940" width="8" height="8" />
    <rect x="172" y="940" width="8" height="8" />
    <rect x="188" y="940" width="8" height="8" />
    <rect x="204" y="940" width="8" height="8" />
  </g>
  <g fill="#ff6600" opacity="0.5">
    <rect x="1332" y="940" width="8" height="8" />
    <rect x="1348" y="940" width="8" height="8" />
    <rect x="1364" y="940" width="8" height="8" />
    <rect x="1380" y="940" width="8" height="8" />
    <rect x="1396" y="940" width="8" height="8" />
    <rect x="1412" y="940" width="8" height="8" />
    <rect x="1428" y="940" width="8" height="8" />
    <rect x="1444" y="940" width="8" height="8" />
    <rect x="1460" y="940" width="8" height="8" />
    <rect x="1476" y="940" width="8" height="8" />
  </g>

  
  <text x="768" y="972" font-family="monospace" font-size="18" fill="#8888aa" text-anchor="middle" letter-spacing="3">THE THINNEST CLAMSHELL PHONE IN NORTH AMERICA · 2005</text>
  <text x="768" y="1004" font-family="monospace" font-size="14" fill="#ff00ff" text-anchor="middle" letter-spacing="4">★ INSERT COIN TO CONTINUE ★</text>

</svg>