<svg xmlns="http://www.w3.org/2000/svg" viewBox="0 0 1536 1024" role="img" width="1536" height="1024">
  <title>The Sony BMG Copy-Protection Rootkit Scandal — Retro Pixel Art Banner</title>

  <defs>
    
    <pattern id="scanlines" x="0" y="0" width="4" height="4" patternUnits="userSpaceOnUse">
      <rect x="0" y="0" width="4" height="2" fill="rgba(0,0,0,0.18)" />
    </pattern>
    
    <filter id="glow" x="-20%" y="-20%" width="140%" height="140%">
      <feGaussianBlur stdDeviation="4" result="blur" />
      <feMerge><feMergeNode in="blur" /><feMergeNode in="SourceGraphic" /></feMerge>
    </filter>
    <filter id="redglow" x="-20%" y="-20%" width="140%" height="140%">
      <feGaussianBlur stdDeviation="6" result="blur" />
      <feMerge><feMergeNode in="blur" /><feMergeNode in="SourceGraphic" /></feMerge>
    </filter>
    
    <linearGradient id="bgGrad" x1="0" y1="0" x2="0" y2="1">
      <stop offset="0%" stop-color="#05050f" />
      <stop offset="100%" stop-color="#0a0020" />
    </linearGradient>
    
    <radialGradient id="cdGrad" cx="50%" cy="50%" r="50%">
      <stop offset="0%" stop-color="#ffffff" />
      <stop offset="20%" stop-color="#c8d8ff" />
      <stop offset="40%" stop-color="#ff88cc" />
      <stop offset="60%" stop-color="#88ffee" />
      <stop offset="80%" stop-color="#ffdd44" />
      <stop offset="100%" stop-color="#aaaacc" />
    </radialGradient>
    <radialGradient id="cdShine" cx="40%" cy="35%" r="60%">
      <stop offset="0%" stop-color="rgba(255,255,255,0.5)" />
      <stop offset="100%" stop-color="rgba(255,255,255,0)" />
    </radialGradient>
  </defs>

  
  <rect width="1536" height="1024" fill="url(#bgGrad)" />

  
  <g stroke="#1a0040" stroke-width="2" opacity="0.7">
    <line x1="0" y1="600" x2="1536" y2="600" />
    <line x1="0" y1="650" x2="1536" y2="650" />
    <line x1="0" y1="700" x2="1536" y2="700" />
    <line x1="0" y1="750" x2="1536" y2="750" />
    <line x1="0" y1="800" x2="1536" y2="800" />
    <line x1="0" y1="850" x2="1536" y2="850" />
    <line x1="0" y1="900" x2="1536" y2="900" />
    <line x1="0" y1="950" x2="1536" y2="950" />
    <line x1="0" y1="1000" x2="1536" y2="1000" />
    
    <line x1="768" y1="500" x2="0" y2="1024" />
    <line x1="768" y1="500" x2="200" y2="1024" />
    <line x1="768" y1="500" x2="400" y2="1024" />
    <line x1="768" y1="500" x2="600" y2="1024" />
    <line x1="768" y1="500" x2="768" y2="1024" />
    <line x1="768" y1="500" x2="936" y2="1024" />
    <line x1="768" y1="500" x2="1136" y2="1024" />
    <line x1="768" y1="500" x2="1336" y2="1024" />
    <line x1="768" y1="500" x2="1536" y2="1024" />
  </g>

  
  
  <g filter="url(#glow)">
    
    <rect x="200" y="160" width="520" height="400" rx="0" fill="#222244" stroke="#4444aa" stroke-width="4" />
    
    <rect x="220" y="180" width="480" height="340" fill="#000811" />
    
    <rect x="230" y="190" width="460" height="320" fill="#000c08" />
    
    <rect x="390" y="560" width="140" height="30" fill="#1a1a44" />
    <rect x="340" y="590" width="240" height="20" fill="#222266" />
    
    <rect x="220" y="180" width="480" height="8" fill="#3333aa" opacity="0.5" />
    
    <rect x="440" y="550" width="40" height="10" fill="#333366" />
  </g>

  
  
  <g fill="#00ff44" font-family="monospace" font-size="0" filter="url(#glow)">
    
    
    <rect x="240" y="200" width="8" height="8" fill="#00ff44" />
    <rect x="252" y="200" width="8" height="8" fill="#00ff44" />
    <rect x="264" y="200" width="8" height="8" fill="#00ff44" />
    <rect x="276" y="200" width="8" height="8" fill="#00ff44" />
    <rect x="288" y="200" width="4" height="8" fill="#00ff44" />
    <rect x="296" y="200" width="8" height="8" fill="#00ff44" />
    <rect x="308" y="200" width="8" height="8" fill="#00ff44" />
    <rect x="320" y="200" width="8" height="8" fill="#00ff44" />
    <rect x="332" y="200" width="4" height="8" fill="#00ff44" />
    <rect x="340" y="200" width="8" height="8" fill="#00ff44" />
    <rect x="352" y="200" width="8" height="8" fill="#00ff44" />
    <rect x="364" y="200" width="8" height="8" fill="#00ff44" />
  </g>

  
  <g opacity="0.8">
    <rect x="240" y="200" width="180" height="6" fill="#00ff44" rx="0" />
    <rect x="240" y="214" width="220" height="6" fill="#00ff44" rx="0" />
    <rect x="240" y="228" width="160" height="6" fill="#00ff44" rx="0" />
    
    <rect x="240" y="248" width="200" height="8" fill="#ff2222" rx="0" />
    <rect x="240" y="262" width="240" height="8" fill="#ff2222" rx="0" />
    <rect x="240" y="276" width="210" height="8" fill="#ff2222" rx="0" />
    
    <rect x="244" y="252" width="6" height="6" fill="#ffff00" />
    <rect x="252" y="252" width="6" height="6" fill="#ffff00" />
    <rect x="260" y="252" width="6" height="6" fill="#ffff00" />
    <rect x="268" y="252" width="6" height="6" fill="#ffff00" />
    <rect x="276" y="252" width="6" height="6" fill="#ffff00" />
  </g>

  
  <text x="244" y="268" font-family="'Courier New', monospace" font-size="14" fill="#ffff00" filter="url(#glow)" font-weight="bold">$sys$driver.sys</text>
  <text x="244" y="284" font-family="'Courier New', monospace" font-size="14" fill="#ffff00" filter="url(#glow)" font-weight="bold">$sys$xcp.exe</text>
  <text x="244" y="300" font-family="'Courier New', monospace" font-size="14" fill="#ffff00" filter="url(#glow)" font-weight="bold">$sys$aries.sys</text>

  
  <g opacity="0.7">
    <rect x="240" y="314" width="190" height="6" fill="#00ff44" />
    <rect x="240" y="326" width="140" height="6" fill="#00ff44" />
    <rect x="240" y="338" width="210" height="6" fill="#00ff44" />
    <rect x="240" y="350" width="170" height="6" fill="#00ff44" />
    <rect x="240" y="362" width="230" height="6" fill="#00ff44" />
    <rect x="240" y="374" width="155" height="6" fill="#00ff44" />
  </g>

  
  <rect x="240" y="390" width="300" height="30" fill="#ff0000" opacity="0.9" />
  <text x="252" y="412" font-family="'Courier New', monospace" font-size="20" fill="#ffff00" font-weight="bold" filter="url(#glow)">!! ROOTKIT DETECTED !!</text>

  
  <rect x="650" y="480" width="10" height="16" fill="#00ff44" opacity="0.9" />

  
  <g transform="translate(900, 320)">
    
    <ellipse cx="10" cy="10" rx="195" ry="195" fill="rgba(0,0,0,0.4)" />
    
    <circle cx="0" cy="0" r="195" fill="#888899" />
    <circle cx="0" cy="0" r="190" fill="#ccccdd" />
    
    <circle cx="0" cy="0" r="185" fill="none" stroke="#ff88cc" stroke-width="12" opacity="0.9" />
    <circle cx="0" cy="0" r="168" fill="none" stroke="#88ffee" stroke-width="12" opacity="0.9" />
    <circle cx="0" cy="0" r="151" fill="none" stroke="#ffdd44" stroke-width="12" opacity="0.9" />
    <circle cx="0" cy="0" r="134" fill="none" stroke="#aa88ff" stroke-width="12" opacity="0.9" />
    <circle cx="0" cy="0" r="117" fill="none" stroke="#ff6644" stroke-width="12" opacity="0.9" />
    <circle cx="0" cy="0" r="100" fill="none" stroke="#44ffaa" stroke-width="12" opacity="0.9" />
    <circle cx="0" cy="0" r="83" fill="none" stroke="#ffaaee" stroke-width="12" opacity="0.9" />
    
    <circle cx="0" cy="0" r="70" fill="#cc0000" />
    <circle cx="0" cy="0" r="65" fill="#dd1111" />
    
    <text x="0" y="-20" text-anchor="middle" font-family="Arial, sans-serif" font-size="22" font-weight="900" fill="white" letter-spacing="4">SONY BMG</text>
    <text x="0" y="8" text-anchor="middle" font-family="Arial, sans-serif" font-size="11" fill="#ffcccc" letter-spacing="1">MUSIC ENTERTAINMENT</text>
    <text x="0" y="26" text-anchor="middle" font-family="Arial, sans-serif" font-size="9" fill="#ffaaaa">XCP PROTECTED</text>
    
    <circle cx="0" cy="0" r="18" fill="#333344" />
    <circle cx="0" cy="0" r="12" fill="#111122" />
    
    <ellipse cx="-60" cy="-80" rx="40" ry="25" fill="rgba(255,255,255,0.25)" transform="rotate(-30)" />
  </g>

  
  <g transform="translate(850, 530)" filter="url(#redglow)">
    
    
    <rect x="20" y="0" width="100" height="10" fill="#ff2222" />
    <rect x="10" y="10" width="120" height="10" fill="#ff2222" />
    <rect x="0" y="20" width="140" height="10" fill="#ff2222" />
    <rect x="0" y="30" width="140" height="10" fill="#ff2222" />
    <rect x="0" y="40" width="140" height="10" fill="#ff2222" />
    
    <rect x="20" y="20" width="30" height="20" fill="#000000" />
    <rect x="90" y="20" width="30" height="20" fill="#000000" />
    
    <rect x="60" y="30" width="20" height="10" fill="#000000" />
    
    <rect x="10" y="50" width="120" height="10" fill="#ff2222" />
    
    <rect x="20" y="60" width="15" height="15" fill="#ffcccc" />
    <rect x="42" y="60" width="15" height="15" fill="#ffcccc" />
    <rect x="64" y="60" width="15" height="15" fill="#ffcccc" />
    <rect x="86" y="60" width="15" height="15" fill="#ffcccc" />
    <rect x="108" y="60" width="15" height="15" fill="#ffcccc" />
    
    <rect x="0" y="0" width="140" height="75" fill="none" stroke="#ff0000" stroke-width="3" opacity="0.5" />
  </g>

  
  <g fill="#003300" font-family="monospace" font-size="14" opacity="0.6">
    
    <text x="40" y="180" fill="#00aa22">1</text>
    <text x="40" y="200" fill="#00ff44">0</text>
    <text x="40" y="220" fill="#00aa22">1</text>
    <text x="40" y="240" fill="#00ff44">1</text>
    <text x="40" y="260" fill="#00aa22">0</text>
    <text x="40" y="280" fill="#00ff44">0</text>
    <text x="40" y="300" fill="#00aa22">1</text>
    <text x="40" y="320" fill="#00ff44">1</text>
    <text x="40" y="340" fill="#00aa22">0</text>
    <text x="40" y="360" fill="#00ff44">1</text>
    <text x="40" y="380" fill="#00aa22">0</text>
    <text x="40" y="400" fill="#00ff44">1</text>
    <text x="60" y="190" fill="#00ff44">0</text>
    <text x="60" y="210" fill="#00aa22">1</text>
    <text x="60" y="230" fill="#00ff44">0</text>
    <text x="60" y="250" fill="#00aa22">1</text>
    <text x="60" y="270" fill="#00ff44">1</text>
    <text x="60" y="290" fill="#00aa22">0</text>
    <text x="60" y="310" fill="#00ff44">1</text>
    <text x="60" y="330" fill="#00aa22">0</text>
    <text x="60" y="350" fill="#00ff44">0</text>
    <text x="60" y="370" fill="#00aa22">1</text>
    <text x="60" y="390" fill="#00ff44">1</text>
    <text x="60" y="410" fill="#00aa22">0</text>
    
    <text x="1460" y="180" fill="#00ff44">1</text>
    <text x="1460" y="200" fill="#00aa22">0</text>
    <text x="1460" y="220" fill="#00ff44">1</text>
    <text x="1460" y="240" fill="#00aa22">0</text>
    <text x="1460" y="260" fill="#00ff44">0</text>
    <text x="1460" y="280" fill="#00aa22">1</text>
    <text x="1460" y="300" fill="#00ff44">1</text>
    <text x="1460" y="320" fill="#00aa22">0</text>
    <text x="1460" y="340" fill="#00ff44">1</text>
    <text x="1460" y="360" fill="#00aa22">1</text>
    <text x="1460" y="380" fill="#00ff44">0</text>
    <text x="1460" y="400" fill="#00aa22">1</text>
    <text x="1480" y="190" fill="#00aa22">0</text>
    <text x="1480" y="210" fill="#00ff44">1</text>
    <text x="1480" y="230" fill="#00aa22">0</text>
    <text x="1480" y="250" fill="#00ff44">1</text>
    <text x="1480" y="270" fill="#00aa22">0</text>
    <text x="1480" y="290" fill="#00ff44">0</text>
    <text x="1480" y="310" fill="#00aa22">1</text>
    <text x="1480" y="330" fill="#00ff44">1</text>
    <text x="1480" y="350" fill="#00aa22">0</text>
    <text x="1480" y="370" fill="#00ff44">1</text>
    <text x="1480" y="390" fill="#00aa22">0</text>
    <text x="1480" y="410" fill="#00ff44">1</text>
  </g>

  
  <g transform="translate(1200, 160)" filter="url(#redglow)">
    <polygon points="80,0 160,140 0,140" fill="#ffdd00" stroke="#ff6600" stroke-width="6" />
    <polygon points="80,20 145,130 15,130" fill="#ffaa00" />
    
    <rect x="74" y="45" width="12" height="48" fill="#000000" />
    <rect x="74" y="103" width="12" height="12" fill="#000000" />
  </g>

  
  <g transform="translate(80, 600)">
    <rect x="0" y="0" width="320" height="120" fill="#0a0020" stroke="#4444ff" stroke-width="3" />
    <rect x="0" y="0" width="320" height="24" fill="#0000aa" />
    <text x="10" y="17" font-family="'Courier New', monospace" font-size="13" fill="#ffffff" font-weight="bold">[ INCIDENT LOG ]</text>
    <text x="10" y="45" font-family="'Courier New', monospace" font-size="11" fill="#00ff44">OCT 31 2005 - Rootkit Discovered</text>
    <text x="10" y="63" font-family="'Courier New', monospace" font-size="11" fill="#ffff44">NOV 2005  - 52 CD Titles Affected</text>
    <text x="10" y="81" font-family="'Courier New', monospace" font-size="11" fill="#ff6644">~2 MILLION Discs Shipped</text>
    <text x="10" y="99" font-family="'Courier New', monospace" font-size="11" fill="#ff4444">RECALL + CLASS ACTION LAWSUITS</text>
  </g>

  
  <g transform="translate(1100, 560)">
    
    <rect x="40" y="0" width="120" height="10" fill="#aa2222" />
    <rect x="20" y="10" width="160" height="10" fill="#cc2222" />
    <rect x="10" y="20" width="180" height="10" fill="#cc2222" />
    <rect x="10" y="30" width="180" height="10" fill="#cc2222" />
    <rect x="10" y="40" width="180" height="10" fill="#cc2222" />
    <rect x="10" y="50" width="180" height="10" fill="#aa2222" />
    <rect x="20" y="60" width="160" height="10" fill="#aa2222" />
    <rect x="40" y="70" width="120" height="10" fill="#882222" />
    <rect x="60" y="80" width="80" height="10" fill="#882222" />
    <rect x="80" y="90" width="40" height="10" fill="#662222" />
    <rect x="90" y="100" width="20" height="5" fill="#662222" />
    
    <text x="100" y="55" text-anchor="middle" font-family="'Courier New', monospace" font-size="22" fill="#ffdd00" font-weight="bold">DRM</text>
    
    <line x1="20" y1="10" x2="180" y2="100" stroke="#ff0000" stroke-width="6" opacity="0.8" />
    <line x1="180" y1="10" x2="20" y2="100" stroke="#ff0000" stroke-width="6" opacity="0.8" />
  </g>

  
  
  <rect x="0" y="730" width="1536" height="294" fill="#000008" opacity="0.92" />
  <rect x="0" y="730" width="1536" height="4" fill="#ff2222" />

  
  <g fill="#ff2222" opacity="0.3">
    <rect x="80" y="760" width="12" height="12" />
    <rect x="96" y="760" width="12" height="12" />
    <rect x="112" y="760" width="12" height="12" />
    <rect x="80" y="776" width="12" height="12" />
    <rect x="112" y="776" width="12" height="12" />
    <rect x="80" y="792" width="12" height="12" />
    <rect x="96" y="792" width="12" height="12" />
    <rect x="112" y="792" width="12" height="12" />

    <rect x="1344" y="760" width="12" height="12" />
    <rect x="1360" y="760" width="12" height="12" />
    <rect x="1376" y="760" width="12" height="12" />
    <rect x="1344" y="776" width="12" height="12" />
    <rect x="1376" y="776" width="12" height="12" />
    <rect x="1344" y="792" width="12" height="12" />
    <rect x="1360" y="792" width="12" height="12" />
    <rect x="1376" y="792" width="12" height="12" />
  </g>

  
  <text x="768" y="820" text-anchor="middle" font-family="'Courier New', Courier, monospace" font-size="62" font-weight="900" fill="#ff3333" filter="url(#redglow)" letter-spacing="2">THE SONY BMG</text>

  <text x="768" y="892" text-anchor="middle" font-family="'Courier New', Courier, monospace" font-size="62" font-weight="900" fill="#ffdd00" filter="url(#glow)" letter-spacing="2">COPY-PROTECTION</text>

  <text x="768" y="964" text-anchor="middle" font-family="'Courier New', Courier, monospace" font-size="62" font-weight="900" fill="#ff3333" filter="url(#redglow)" letter-spacing="2">ROOTKIT SCANDAL</text>

  
  <text x="768" y="750" text-anchor="middle" font-family="'Courier New', monospace" font-size="18" fill="#44ff88" filter="url(#glow)" letter-spacing="6">▶ PRESS START TO LEARN MORE ◀</text>

  
  <rect width="1536" height="1024" fill="url(#scanlines)" opacity="0.5" />

  
  <radialGradient id="vignette" cx="50%" cy="50%" r="70%">
    <stop offset="0%" stop-color="rgba(0,0,0,0)" />
    <stop offset="100%" stop-color="rgba(0,0,0,0.55)" />
  </radialGradient>
  <rect width="1536" height="1024" fill="url(#vignette)" />
</svg>